<svg xmlns="http://www.w3.org/2000/svg" width="348.353" height="125.783" viewBox="0 0 348.353 125.783">
  <g id="cab-onb-sd" transform="translate(0 -14.895)">
    <ellipse id="Ellipse_9478" data-name="Ellipse 9478" cx="174.172" cy="3.127" rx="174.172" ry="3.127" transform="translate(0.003 134.425)" fill="#d0cfee" opacity="0.26"/>
    <g id="Group_43242" data-name="Group 43242" transform="translate(0 14.895)">
      <path id="Path_132216" data-name="Path 132216" d="M1061.62,603.748v29.421h5.09V603.36C1064.97,603.47,1063.282,603.6,1061.62,603.748Z" transform="translate(-875.873 -602.491)" fill="#141611"/>
      <path id="Path_132219" data-name="Path 132219" d="M1048.317,654.637c-2.451-3.423-6.477-11.665-18.89-12.611s-18.148,0-47.337-14.273c-22-10.757-41.614-14.974-65.973-15.712-24.874-.753-49.3,2.057-72.8,10.559-13.125,4.747-24.489,14.5-37.214,19.425l-14.694,5.682-64.7,12.465c-4.082,0-7.947,3.054-10.881,5.542a41.324,41.324,0,0,0-9.3,11.234,16.721,16.721,0,0,0-2.046,5.573A54.172,54.172,0,0,0,704,688c-.062,1.906.935,3.625,1.356,5.443a20.092,20.092,0,0,1,.2,7.427c-.125,1-.27,1.989-.41,2.981-.057,2.9-.26,5.776-.6,8.6.234.13.468.27.706.421a11.413,11.413,0,0,1,1.257.9H956.026v-8.9l52.4,1.517v2.135c0,7.91,6.4,4.43,14.32,4.425,10.211-.01,29.595-9.4,29.595-20.848V664.594A14.3,14.3,0,0,0,1048.317,654.637Z" transform="translate(-703.995 -611.925)" fill="#fff"/>
      <path id="Path_132220" data-name="Path 132220" d="M1051.487,654.637c-2.452-3.423-6.477-11.665-18.89-12.611s-18.148,0-47.337-14.273c-22-10.757-41.614-14.974-65.973-15.712-24.874-.753-49.3,2.057-72.8,10.559-13.125,4.747-24.489,14.5-37.214,19.425l-14.694,5.682-64.69,12.465c-5.776,0-14.834,8.009-19.3,15.405a46.325,46.325,0,0,1,21.061-11.531,71.671,71.671,0,0,1,11.9-4.669,37.456,37.456,0,0,1,5.3-1.091c5.661-.795,11.447-1.73,17.2-2.14,1.594-.114,3.194-.2,4.789-.3,6.2-1.236,12.341-2.774,18.558-3.9a192.661,192.661,0,0,1,24.853-3.251c.764-.036,1.527-.062,2.291-.073a185.186,185.186,0,0,0,22.027-13.125c7.677-5.246,15.629-8.767,24.479-12.034a65.936,65.936,0,0,1,13.862-3.4c8.289-1.148,16.428-2.316,24.759-2.758,4.654-.249,9.318-.39,13.966-.722,5.069-.364,10.154-.847,15.239-.732a111.9,111.9,0,0,1,19.191,2.249,42.546,42.546,0,0,1,6.487,1.839c12.7,4.737,24.453,11.125,36.648,16.932,4.721,2.249,9.474,4.441,14.205,6.664,2.607,1.226,5.184,2.54,7.786,3.8,2.436.909,4.877,1.807,7.282,2.815,5.313,2.233,11.7,4.456,16.9,7.526a74.683,74.683,0,0,1,14.07,10.731q1.075,1.044,2.062,2.161v-5.988a14.3,14.3,0,0,0-4.025-9.957Z" transform="translate(-707.164 -611.925)" fill="#d0cfee"/>
      <path id="Path_132221" data-name="Path 132221" d="M1274.059,683.574a6.69,6.69,0,1,1-6.69-6.684A6.688,6.688,0,0,1,1274.059,683.574Z" transform="translate(-971.543 -643.148)" fill="#ecebff" stroke="#ecebff" stroke-miterlimit="10" stroke-width="0.31"/>
      <path id="Path_132222" data-name="Path 132222" d="M1354.939,687.354c-1.252-1.735-2.908-4.721-5.869-7.355h-7.09l4.1,11.453H1357.7a14.544,14.544,0,0,0-2.763-4.1h.005Z" transform="translate(-1010.616 -644.642)" fill="#f4571c"/>
      <path id="Path_132223" data-name="Path 132223" d="M1355.114,689.1c-.525-.784-1.122-1.678-1.833-2.607h-8.98l.935,2.607Z" transform="translate(-1011.732 -647.761)" fill="#f5f5f5"/>
      <path id="Path_132224" data-name="Path 132224" d="M733.926,702.46l-6.295,1.221c-7.318,0-19.862,12.813-21.731,21A96.535,96.535,0,0,1,733.926,702.46Z" transform="translate(-704.91 -655.437)" fill="#d0cfee"/>
      <path id="Path_132225" data-name="Path 132225" d="M1081.335,703.819v.021c-8.175,0-16.345.016-24.521,0q-14.873-.031-29.751-.021h-.348q-14.92,0-29.834.036c-24.723.052-49.451-.052-74.174-.052-23.035,0-46.111.332-69.141.073-20.293-.228-40.32-.244-60.447,1.865-5.329.561-10.72.6-16.07,1-2.732.2-5.791.909-8.7,1.324v.317h314.922v-.2a7.568,7.568,0,0,0-1.049-4.368h-.883Z" transform="translate(-734.925 -656.068)" fill="#ecebff"/>
      <path id="Path_132226" data-name="Path 132226" d="M941.67,800.1c-17.026-.457-34.051-1.013-51.082-1.522a22.057,22.057,0,0,1-.758,4.9h155.511v-2.446C1010.78,801.063,976.225,801.026,941.67,800.1Z" transform="translate(-793.309 -701.633)" fill="#ecebff"/>
      <path id="Path_132227" data-name="Path 132227" d="M1326.937,764.217a28.94,28.94,0,0,1-4.368,4.218,48.967,48.967,0,0,1-6.326,4.669,66.015,66.015,0,0,1-7.256,3.194,26.222,26.222,0,0,1-5.994,1.579,98.258,98.258,0,0,1-11.1,1.221c-.306.01-.608.01-.914.016,1.568,4.025,7.183,1.537,13.883,1.537,10.211-.01,29.595-9.4,29.595-20.848V752.78a52.974,52.974,0,0,1-7.516,11.442Z" transform="translate(-986.105 -679.621)" fill="#d0cfee"/>
      <g id="Group_43232" data-name="Group 43232" transform="translate(32.382 63.488)">
        <path id="Path_132228" data-name="Path 132228" d="M832.012,772.938a33.083,33.083,0,1,0-65.672-5.7,33.79,33.79,0,0,0,.488,5.7h65.178Z" transform="translate(-766.34 -734.16)" fill="#231f20"/>
        <path id="Path_132229" data-name="Path 132229" d="M776.93,770.349A27.58,27.58,0,1,0,804.5,742.77,27.58,27.58,0,0,0,776.93,770.349Z" transform="translate(-771.43 -738.298)" fill="#3d3b3d"/>
        <path id="Path_132230" data-name="Path 132230" d="M776.93,770.349A27.58,27.58,0,1,0,804.5,742.77,27.58,27.58,0,0,0,776.93,770.349Z" transform="translate(-771.43 -738.298)" fill="#3d3b3d"/>
        <path id="Path_132231" data-name="Path 132231" d="M784.46,773.969A23.669,23.669,0,1,0,808.123,750.3,23.673,23.673,0,0,0,784.46,773.969Z" transform="translate(-775.049 -741.917)" fill="#414042"/>
        <path id="Path_132232" data-name="Path 132232" d="M790.93,777.083a20.306,20.306,0,1,0,20.3-20.3A20.3,20.3,0,0,0,790.93,777.083Z" transform="translate(-778.158 -745.031)" fill="#231f20"/>
        <path id="Path_132233" data-name="Path 132233" d="M790.93,777.083a20.306,20.306,0,1,0,20.3-20.3A20.3,20.3,0,0,0,790.93,777.083Z" transform="translate(-778.158 -745.031)" fill="#3d3b3d"/>
        <path id="Path_132234" data-name="Path 132234" d="M802.41,782.591a14.346,14.346,0,1,0,14.34-14.351A14.343,14.343,0,0,0,802.41,782.591Z" transform="translate(-783.675 -750.539)" fill="#fff" stroke="#3d3b3d" stroke-miterlimit="10" stroke-width="0.86"/>
        <g id="Group_43231" data-name="Group 43231" transform="translate(19.519 18.651)">
          <path id="Path_132235" data-name="Path 132235" d="M810.86,786.972a9.954,9.954,0,1,0,9.951-9.962A9.955,9.955,0,0,0,810.86,786.972Z" transform="translate(-807.255 -773.405)" fill="#3d3b3d"/>
          <path id="Path_132236" data-name="Path 132236" d="M818.889,789.807a6.285,6.285,0,0,0,2.54-1.21l4.5,5.651a13.519,13.519,0,0,1-5.443,2.618l-1.594-7.053Zm-9.874,4.43,4.519-5.646a6.378,6.378,0,0,0,2.535,1.215l-1.6,7.053a13.68,13.68,0,0,1-5.443-2.628Zm14.185-7.843a6.23,6.23,0,0,0,.618-2.753l7.23.021a13.426,13.426,0,0,1-1.345,5.874Zm-19.28-2.758v-.047h7.225v.047a6.293,6.293,0,0,0,.623,2.742l-6.513,3.147A13.515,13.515,0,0,1,803.92,783.636Zm17.529-4.955,4.519-5.635a13.719,13.719,0,0,1,3.75,4.726l-6.518,3.122a6.418,6.418,0,0,0-1.756-2.213Zm-16.169-.987a13.655,13.655,0,0,1,3.781-4.7l4.482,5.666a6.331,6.331,0,0,0-1.766,2.2l-6.5-3.168Zm10.8-.244-1.579-7.064a14.053,14.053,0,0,1,6.03.021l-1.626,7.048a6.229,6.229,0,0,0-2.82-.01Z" transform="translate(-803.92 -770.07)" fill="#3d3b3d"/>
        </g>
      </g>
      <g id="Group_43234" data-name="Group 43234" transform="translate(248.682 63.488)">
        <path id="Path_132237" data-name="Path 132237" d="M1248.462,772.938a33.083,33.083,0,1,0-65.672-5.7,33.79,33.79,0,0,0,.488,5.7h65.178Z" transform="translate(-1182.79 -734.16)" fill="#231f20"/>
        <path id="Path_132238" data-name="Path 132238" d="M1193.38,770.349a27.58,27.58,0,1,0,27.574-27.58A27.58,27.58,0,0,0,1193.38,770.349Z" transform="translate(-1187.88 -738.298)" fill="#3d3b3d"/>
        <path id="Path_132239" data-name="Path 132239" d="M1193.38,770.349a27.58,27.58,0,1,0,27.574-27.58A27.58,27.58,0,0,0,1193.38,770.349Z" transform="translate(-1187.88 -738.298)" fill="#3d3b3d"/>
        <path id="Path_132240" data-name="Path 132240" d="M1200.91,773.969a23.669,23.669,0,1,0,23.663-23.669A23.672,23.672,0,0,0,1200.91,773.969Z" transform="translate(-1191.499 -741.917)" fill="#414042"/>
        <path id="Path_132241" data-name="Path 132241" d="M1207.38,777.083a20.305,20.305,0,1,0,20.3-20.3A20.3,20.3,0,0,0,1207.38,777.083Z" transform="translate(-1194.608 -745.031)" fill="#231f20"/>
        <path id="Path_132242" data-name="Path 132242" d="M1207.38,777.083a20.305,20.305,0,1,0,20.3-20.3A20.3,20.3,0,0,0,1207.38,777.083Z" transform="translate(-1194.608 -745.031)" fill="#3d3b3d"/>
        <path id="Path_132243" data-name="Path 132243" d="M1218.86,782.591a14.345,14.345,0,1,0,14.34-14.351A14.343,14.343,0,0,0,1218.86,782.591Z" transform="translate(-1200.125 -750.539)" fill="#fff" stroke="#3d3b3d" stroke-miterlimit="10" stroke-width="0.86"/>
        <g id="Group_43233" data-name="Group 43233" transform="translate(19.514 18.651)">
          <path id="Path_132244" data-name="Path 132244" d="M1227.31,786.972a9.954,9.954,0,1,0,9.952-9.962A9.955,9.955,0,0,0,1227.31,786.972Z" transform="translate(-1223.7 -773.405)" fill="#3d3b3d"/>
          <path id="Path_132245" data-name="Path 132245" d="M1235.334,789.807a6.316,6.316,0,0,0,2.54-1.21l4.5,5.651a13.522,13.522,0,0,1-5.443,2.618l-1.594-7.053Zm-9.874,4.43,4.519-5.646a6.378,6.378,0,0,0,2.535,1.215l-1.6,7.053a13.678,13.678,0,0,1-5.443-2.628Zm14.179-7.843a6.3,6.3,0,0,0,.618-2.753l7.23.021a13.425,13.425,0,0,1-1.345,5.874Zm-19.28-2.758v-.047h7.225v.047a6.293,6.293,0,0,0,.623,2.742l-6.513,3.147A13.588,13.588,0,0,1,1220.36,783.636Zm17.535-4.955,4.519-5.635a13.715,13.715,0,0,1,3.75,4.726l-6.518,3.122a6.467,6.467,0,0,0-1.75-2.213Zm-16.169-.987a13.654,13.654,0,0,1,3.781-4.7l4.482,5.666a6.334,6.334,0,0,0-1.766,2.2l-6.5-3.168Zm10.808-.244-1.579-7.064a14.054,14.054,0,0,1,6.03.021l-1.626,7.048a6.231,6.231,0,0,0-2.821-.01Z" transform="translate(-1220.36 -770.07)" fill="#3d3b3d"/>
        </g>
      </g>
      <path id="Path_132246" data-name="Path 132246" d="M986.245,687.12v59.039c-1.865.005-10.528.016-10.611.016h-4.223c-3.3-.01-6.607-.026-9.905.016-6.861.088-13.847-.047-20.609-.171-5.246-.094-10.658-.192-15.976-.192-3.407,0-6.482.042-9.4.125-5.277.156-8.944-.987-11.328-3.48-4.062-4.228-3.729-11.7-3.392-19.6.094-2.218.192-4.524.177-6.721-.021-5.656,0-13.078.021-20.256,0-3.085.016-6.072.016-8.772H900.3c0,2.7-.01,5.687-.016,8.772-.016,7.178-.036,14.605-.016,20.256.016,2.187-.083,4.477-.177,6.69-.353,8.061-.68,15.68,3.589,20.132,2.535,2.638,6.357,3.849,11.853,3.7,2.909-.083,5.983-.125,9.38-.125,5.308,0,10.731.1,15.966.2s10.658.2,15.971.2q2.337,0,4.659-.031c3.3-.042,6.6-.031,9.894-.016q2.111.008,4.223.005c.094,0,10.809-.016,10.985-.031h.338V687.12h-.717Z" transform="translate(-798.15 -648.064)" fill="#ecebff"/>
      <path id="Path_132247" data-name="Path 132247" d="M1156.741,687.11c-.348,8.643-5.724,19.534-17.9,25.85-10.757,5.573-13.182,14.044-15.135,20.854-1.995,6.949-3.573,12.408-12.959,12.128-2.919-.083-5.287-.125-7.23-.125-2.846,0-4.472.088-6.191.176-2.576.135-5.3.281-12.517.187-1.891-.016-3.792-.031-5.682-.031-1.408,0-2.815,0-4.223.01h-4.223c-.2,0-2.94-.005-3.921-.016V687.105h-.717v59.74h.343c.182.016,4.259.036,4.3.036q2.111,0,4.223-.005c3.3-.01,6.6-.021,9.894.016,1.553.021,2.9.031,4.082.031,4.342,0,6.446-.109,8.482-.213,1.714-.1,3.319-.182,6.15-.182,1.937,0,4.3.042,7.209.125,9.983.275,11.671-5.693,13.665-12.652,2.01-7.017,4.29-14.979,14.776-20.417,12.559-6.508,17.961-17.654,18.293-26.484h-.722Z" transform="translate(-877.997 -648.055)" fill="#ecebff"/>
      <path id="Path_132248" data-name="Path 132248" d="M1078.357,649.028c0-4.654-21.523-22.708-25.627-24.863-19.171-10.045-52.967-10.4-73.878-6.908-24.468,4.093-53.4,12.46-73.582,33.579v.031h173.087Z" transform="translate(-800.729 -613.525)" fill="#93bdc4"/>
      <path id="Path_132249" data-name="Path 132249" d="M1077.4,652.788c0-4.654-21.991-22.708-26.183-24.863-19.586-10.045-54.115-10.4-75.478-6.908-25,4.088-54.552,12.46-75.171,33.573v.031H1077.4v-1.839Z" transform="translate(-798.471 -615.332)" fill="#b4dbda"/>
      <g id="Group_43235" data-name="Group 43235" transform="translate(147.977 5.212)">
        <path id="Path_132250" data-name="Path 132250" d="M991.325,655.918c10.388-11.078,20.329-22.588,30.395-33.958-.743.1-1.475.208-2.192.317q-1.753,1.784-3.511,3.568-8.251,8.328-16.563,16.6-5.181,6.872-10.554,13.6h2.306c.042-.042.078-.083.12-.125Z" transform="translate(-988.9 -621.96)" fill="#c4e1e2"/>
        <path id="Path_132251" data-name="Path 132251" d="M1131.518,641.6q6.965-6.279,14-12.486a78.316,78.316,0,0,0-12.159-3.766q-.912,1.013-1.823,2.02-13.587,15.083-27.029,30.291h9.6q8.6-8.149,17.4-16.07Z" transform="translate(-1044.463 -623.589)" fill="#c4e1e2"/>
      </g>
      <path id="Path_132252" data-name="Path 132252" d="M1066.689,620.16c-.712.062-1.423.125-2.119.192v34.825h2.119Z" transform="translate(-877.291 -615.883)" fill="#141611"/>
      <path id="Path_132253" data-name="Path 132253" d="M1195.292,644.9a92.737,92.737,0,0,1-8.362,21.84H1214.7V664.9C1214.7,661.541,1203.249,651.2,1195.292,644.9Z" transform="translate(-936.098 -627.773)" fill="#c4e1e2"/>
      <g id="Group_43236" data-name="Group 43236" transform="translate(108.706 28.85)">
        <path id="Path_132254" data-name="Path 132254" d="M932.357,673.407c0,3.277-2.129,5.942-4.763,5.942h-9.536c-2.633,0-4.768-2.665-4.768-5.942h0c0-3.283,2.135-5.937,4.768-5.937h9.536c2.633,0,4.763,2.659,4.763,5.937Z" transform="translate(-913.29 -667.47)" fill="#ecebff"/>
        <path id="Path_132255" data-name="Path 132255" d="M913.664,674.47a7.2,7.2,0,0,0-.374,2.3c0,3.277,2.135,5.942,4.768,5.942h9.536a3.553,3.553,0,0,0,1-.135A56.679,56.679,0,0,1,913.664,674.47Z" transform="translate(-913.29 -670.834)" fill="#303434"/>
      </g>
      <g id="Group_43237" data-name="Group 43237" transform="translate(130.775 60.372)">
        <path id="Path_132256" data-name="Path 132256" d="M959.083,729.823c-.462,0-.841.005-1.143.036a1.332,1.332,0,0,0-1.252.9,7.247,7.247,0,0,0-.374,1.257l-.535-.052v-.228c.005-.135.021-.286.026-.462s.026-.369.031-.587.021-.421.042-.623.031-.389.042-.561.031-.306.041-.405a.169.169,0,0,1,.192-.166c.644.016,1.267.031,1.849.036h6.815c.6-.005,1.221-.016,1.859-.036a.159.159,0,0,1,.172.166,3.2,3.2,0,0,1,.036.405c.016.177.021.364.036.561s.026.41.036.623.005.41.01.587v.462c.005.125.005.208.005.228l-.53.052a8.4,8.4,0,0,0-.369-1.257,1.53,1.53,0,0,0-.473-.66,1.409,1.409,0,0,0-.727-.239c-.3-.026-.681-.036-1.143-.036h-1.361v11.183a.292.292,0,0,1-.26.3c-.119.016-.254.036-.395.052l-.431.047c-.135.005-.265.021-.379.026h-.26a.23.23,0,0,1-.26-.265V729.823h-1.309Z" transform="translate(-955.78 -728.53)"/>
        <path id="Path_132257" data-name="Path 132257" d="M978.486,736.465l-1.631,4.42a.221.221,0,0,1-.2.135c-.125.016-.27.021-.436.036s-.338.005-.551.005c-.109,0-.172-.036-.172-.1,0-.016.005-.042.005-.052l4.882-11.681-.229-.623a.887.887,0,0,1-.021-.109c0-.109.073-.171.2-.192s.244-.042.4-.057.3-.036.447-.052.27-.016.389-.021.213-.01.27-.01a.319.319,0,0,1,.306.239l4.747,12.216a.625.625,0,0,1,.026.119c0,.114-.067.187-.213.218-.13.016-.27.036-.431.052l-.462.047c-.151.005-.286.021-.416.026h-.281a.238.238,0,0,1-.239-.156l-1.74-4.519-4.654.083Zm.343-.909h3.994l-2.026-5.277-1.974,5.277Z" transform="translate(-965.257 -728.16)"/>
        <path id="Path_132258" data-name="Path 132258" d="M998.241,728.909c.306-.057.623-.1.93-.161s.571-.088.831-.125c.255-.021.457-.052.634-.062s.291-.031.337-.031a.281.281,0,0,1,.234.093,1.236,1.236,0,0,1,.187.27l2.509,4.249,2.581-4.072h.005a.01.01,0,0,0,.01-.01,1.338,1.338,0,0,1,.151-.187.61.61,0,0,1,.218-.1,1.605,1.605,0,0,1,.322-.067c.114-.016.223-.026.322-.042.1,0,.208-.01.291-.016h.213c.135,0,.2.047.2.135a.272.272,0,0,1-.057.171l-3.63,5.272,3.885,6.56a.172.172,0,0,1,.042.13c0,.109-.062.177-.213.208-.119.016-.265.036-.436.052l-.493.047c-.166.005-.312.021-.447.026h-.28a.32.32,0,0,1-.3-.172l-3.085-5.2-3.075,4.913a.847.847,0,0,1-.151.192.494.494,0,0,1-.228.109,2.675,2.675,0,0,1-.322.073c-.119.021-.234.026-.343.042-.109,0-.213.016-.307.016h-.213c-.135,0-.208-.042-.208-.135a.33.33,0,0,1,.062-.171l4.145-6.118-2.706-4.565a1.763,1.763,0,0,0-.525-.608,1.161,1.161,0,0,0-.6-.156,1.556,1.556,0,0,0-.218.01c-.078.01-.145.016-.239.031l-.057-.587Z" transform="translate(-976.177 -728.338)"/>
        <path id="Path_132259" data-name="Path 132259" d="M1019.4,728.909c.384-.062.748-.125,1.091-.177s.649-.083.914-.119c.265-.021.488-.052.665-.068s.291-.016.343-.016a.3.3,0,0,1,.338.332v11.946a.288.288,0,0,1-.249.3c-.125.016-.255.036-.4.052l-.431.047c-.135.005-.265.021-.379.026h-.26a.233.233,0,0,1-.26-.265V730.441a1.784,1.784,0,0,0-.057-.493.72.72,0,0,0-.172-.3.507.507,0,0,0-.265-.14,1.042,1.042,0,0,0-.348-.052,3.6,3.6,0,0,0-.472.031l-.062-.587Z" transform="translate(-986.352 -728.338)"/>
      </g>
      <g id="Group_43238" data-name="Group 43238" transform="translate(168.763 42.951)">
        <path id="Path_132260" data-name="Path 132260" d="M1029.54,696.516a1.893,1.893,0,0,0,1.9,1.9h8.83a1.893,1.893,0,0,0,1.9-1.9h0a1.9,1.9,0,0,0-1.9-1.9h-8.83a1.9,1.9,0,0,0-1.9,1.9Z" transform="translate(-1029.218 -694.62)" fill="#ecebff"/>
        <path id="Path_132261" data-name="Path 132261" d="M1028.92,697.136a1.893,1.893,0,0,0,1.9,1.9h8.83a1.893,1.893,0,0,0,1.9-1.9h0a1.9,1.9,0,0,0-1.9-1.9h-8.83a1.9,1.9,0,0,0-1.9,1.9Z" transform="translate(-1028.92 -694.918)" fill="#ecebff"/>
      </g>
      <g id="Group_43240" data-name="Group 43240" transform="translate(6.407 54.263)">
        <path id="Path_132264" data-name="Path 132264" d="M733.506,716.41c-1.008.26-2.124.551-3.36.873a20.466,20.466,0,0,0-13.816,12.33h14.018c5.6-2.348,8.7-5.391,10.4-8.17h0c.036-.057.067-.114.1-.171l.062-.109c.052-.088.1-.171.146-.26.026-.052.057-.1.083-.151.036-.068.073-.135.1-.2s.068-.13.1-.2l.062-.125a13.565,13.565,0,0,0,1.221-3.828H733.5Z" transform="translate(-716.33 -716.4)" fill="#e6e7e8"/>
        <path id="Path_132265" data-name="Path 132265" d="M742.321,716.41l-2.55.665a46.568,46.568,0,0,1-5.1,12.538h4.493c5.6-2.348,8.7-5.391,10.4-8.17h0c.036-.057.067-.114.1-.171l.062-.109c.052-.088.1-.171.146-.26.026-.052.057-.1.083-.151.036-.068.073-.135.1-.2s.068-.13.1-.2l.062-.125a13.562,13.562,0,0,0,1.221-3.828h-9.12Z" transform="translate(-725.144 -716.4)" fill="#d5e0e7"/>
        <path id="Path_132266" data-name="Path 132266" d="M750.217,716.41a46.214,46.214,0,0,1-8.767,13.2h.971c5.6-2.348,8.7-5.391,10.4-8.17h0c.036-.057.068-.114.1-.171l.062-.109c.052-.088.1-.171.146-.26.026-.052.057-.1.083-.151.036-.068.073-.135.1-.2s.068-.13.1-.2l.062-.125a13.566,13.566,0,0,0,1.221-3.828h-4.487Z" transform="translate(-728.403 -716.4)" fill="#f4571c"/>
      </g>
      <g id="Group_43241" data-name="Group 43241" transform="translate(133.419 76.239)">
        <rect id="Rectangle_16358" data-name="Rectangle 16358" width="6.477" height="6.477" fill="#231f20"/>
        <rect id="Rectangle_16359" data-name="Rectangle 16359" width="6.477" height="6.477" transform="translate(12.954)" fill="#231f20"/>
        <rect id="Rectangle_16360" data-name="Rectangle 16360" width="6.477" height="6.477" transform="translate(25.902)" fill="#231f20"/>
        <rect id="Rectangle_16361" data-name="Rectangle 16361" width="6.477" height="6.477" transform="translate(6.477 6.383)" fill="#231f20"/>
        <rect id="Rectangle_16362" data-name="Rectangle 16362" width="6.477" height="6.477" transform="translate(19.43 6.383)" fill="#231f20"/>
      </g>
      <path id="Path_132267" data-name="Path 132267" d="M1198.75,697.136a1.893,1.893,0,0,0,1.9,1.9h8.83a1.893,1.893,0,0,0,1.9-1.9h0a1.893,1.893,0,0,0-1.9-1.9h-8.83a1.9,1.9,0,0,0-1.9,1.9Z" transform="translate(-941.451 -652.289)" fill="#ecebff"/>
    </g>
  </g>
</svg>
